<?xml version="1.0" standalone="no"?><!DOCTYPE svg PUBLIC "-//W3C//DTD SVG 1.1//EN" "http://www.w3.org/Graphics/SVG/1.1/DTD/svg11.dtd"><svg t="1636956338035" class="icon" viewBox="0 0 1024 1024" version="1.1" xmlns="http://www.w3.org/2000/svg" p-id="2284" xmlns:xlink="http://www.w3.org/1999/xlink" width="200" height="200"><defs><style type="text/css"></style></defs><path d="M308.682105 857.465263L323.368421 904.353684l15.225263-46.888421h20.48v67.368421h-15.090526v-16.976842l1.482105-30.585263-16.168421 47.292632h-10.509474l-15.898947-46.888422 1.482105 30.181053v16.707369h-16.168421v-67.368422zM425.633684 896.943158a28.025263 28.025263 0 0 1-7.949473 20.48 26.947368 26.947368 0 0 1-20.48 8.08421 26.947368 26.947368 0 0 1-28.564211-28.56421v-11.991579A29.103158 29.103158 0 0 1 417.684211 864.471579a28.294737 28.294737 0 0 1 7.949473 20.48z m-15.494737-12.126316a19.267368 19.267368 0 0 0-3.503158-11.722105 12.261053 12.261053 0 0 0-19.132631 0 18.593684 18.593684 0 0 0-3.368421 11.722105v12.126316a19.671579 19.671579 0 0 0 3.368421 11.991579 11.587368 11.587368 0 0 0 9.701053 4.581052 11.452632 11.452632 0 0 0 9.566315-4.581052 20.614737 20.614737 0 0 0 3.368421-11.991579zM489.633684 857.465263v43.924211a21.962105 21.962105 0 0 1-7.545263 17.785263 35.031579 35.031579 0 0 1-40.421053 0 21.692632 21.692632 0 0 1-7.68-17.785263v-43.924211h15.629474v43.924211a11.856842 11.856842 0 0 0 3.233684 9.162105 13.473684 13.473684 0 0 0 8.892632 2.96421 11.991579 11.991579 0 0 0 8.892631-2.96421 11.856842 11.856842 0 0 0 3.098948-9.162105v-43.924211zM555.789474 924.564211H540.294737l-24.522105-42.846316v42.711579H499.873684v-67.368421h15.629474l24.522105 42.711579v-42.307369h15.494737zM611.84 869.456842H594.189474v55.107369h-15.629474v-55.107369h-17.515789v-11.991579h50.795789zM648.757895 911.494737h-21.153684l-3.772632 13.473684h-15.629474l21.692632-67.368421H646.736842l21.692632 67.368421h-15.898948z m-17.650527-11.991579h13.473685L638.383158 875.789474zM689.583158 924.564211H673.684211v-67.368422h15.494736zM757.086316 924.564211H741.052632l-24.522106-42.846316v42.711579H700.631579v-67.368421h16.168421l24.252632 43.115789v-42.711579h15.494736zM803.166316 906.778947a6.467368 6.467368 0 0 0-2.290527-5.52421 28.698947 28.698947 0 0 0-8.488421-4.176842 64.808421 64.808421 0 0 1-18.728421-7.814737 15.494737 15.494737 0 0 1-5.658947-13.473684 16.168421 16.168421 0 0 1 7.275789-13.473685 32.202105 32.202105 0 0 1 18.593685-5.12 28.16 28.16 0 0 1 18.189473 5.658948 17.515789 17.515789 0 0 1 7.006316 14.821052h-15.76421a8.892632 8.892632 0 0 0-2.694737-6.602105 11.048421 11.048421 0 0 0-7.545263-2.425263 12.126316 12.126316 0 0 0-7.410527 2.021053 6.467368 6.467368 0 0 0-2.694737 5.12 5.524211 5.524211 0 0 0 2.694737 4.715789 55.781053 55.781053 0 0 0 10.105263 4.446316 48.909474 48.909474 0 0 1 17.246316 8.353684 17.111579 17.111579 0 0 1 5.793684 13.473684 16.168421 16.168421 0 0 1-6.871578 13.473685 31.124211 31.124211 0 0 1-18.324211 4.985263 34.223158 34.223158 0 0 1-19.671579-5.793684 17.650526 17.650526 0 0 1-8.08421-16.437895H781.473684a9.701053 9.701053 0 0 0 3.098948 8.218947 15.090526 15.090526 0 0 0 9.431579 2.56 11.183158 11.183158 0 0 0 7.275789-2.021052 5.928421 5.928421 0 0 0 1.886316-4.985264z" fill="#3F4A5A" p-id="2285"></path><path d="M525.473684 633.263158l175.157895-336.842105h13.473684l161.684211 336.842105" fill="#262E37" p-id="2286"></path><path d="M660.210526 431.157895h-26.947368l-107.789474-256h-13.473684l-80.842105 161.68421h-40.421053L229.052632 660.210526h538.947368l-107.789474-229.052631z" fill="#333C49" p-id="2287"></path><path d="M619.789474 660.210526l-67.368421-161.68421h-53.894737l-26.947369 40.421052h-53.894736l-134.736843 121.263158" fill="#3F4A5A" p-id="2288"></path><path d="M512 309.894737l53.355789-40.016842L525.473684 175.157895h-13.473684l-49.044211 97.953684L512 309.894737z" fill="#D9D8D7" p-id="2289"></path><path d="M350.315789 175.157895m-94.315789 0a94.315789 94.315789 0 1 0 188.631579 0 94.315789 94.315789 0 1 0-188.631579 0Z" fill="#E66847" p-id="2290"></path></svg>